<?xml version="1.0" standalone="no"?><!DOCTYPE svg PUBLIC "-//W3C//DTD SVG 1.1//EN" "http://www.w3.org/Graphics/SVG/1.1/DTD/svg11.dtd"><svg t="1599499060216" class="icon" viewBox="0 0 1024 1024" version="1.1" xmlns="http://www.w3.org/2000/svg" p-id="1784" xmlns:xlink="http://www.w3.org/1999/xlink" width="80" height="80"><defs><style type="text/css"></style></defs><path d="M180.7 526.5V96.7c0-15.1-12.3-27.4-27.4-27.4s-27.4 12.3-27.4 27.4v429.8c-63.2 12.8-111 68.7-111 135.7s47.8 122.9 111 135.7v129.4c0 15.1 12.3 27.4 27.4 27.4s27.4-12.3 27.4-27.4V797.9c63.2-12.8 111-68.7 111-135.7s-47.8-122.9-111-135.7z m-27.5 219.3c-46.1 0-83.6-37.5-83.6-83.6 0-46.1 37.5-83.6 83.6-83.6s83.6 37.5 83.6 83.6c0 46.1-37.5 83.6-83.6 83.6zM898.2 526.5V96.7c0-15.1-12.3-27.4-27.4-27.4-15.1 0-27.4 12.3-27.4 27.4v429.8c-63.2 12.8-111 68.7-111 135.7s47.8 122.9 111 135.7v129.4c0 15.1 12.3 27.4 27.4 27.4 15.1 0 27.4-12.3 27.4-27.4V797.9c63.2-12.8 111-68.7 111-135.7s-47.8-122.9-111-135.7z m-27.4 219.3c-46.1 0-83.6-37.5-83.6-83.6 0-46.1 37.5-83.6 83.6-83.6 46.1 0 83.6 37.5 83.6 83.6 0 46.1-37.5 83.6-83.6 83.6zM539.4 221.2V96.7c0-15.1-12.3-27.4-27.4-27.4-15.1 0-27.4 12.3-27.4 27.4v124.5c-63.2 12.8-111 68.7-111 135.7s47.8 122.9 111 135.7v434.7c0 15.1 12.3 27.4 27.4 27.4 15.1 0 27.4-12.3 27.4-27.4V492.6c63.2-12.8 111-68.7 111-135.7s-47.7-122.9-111-135.7z m-23.3 218.9c-1.4-0.2-2.7-0.8-4.1-0.8-1.5 0-2.7 0.6-4.1 0.8-44.2-2.2-79.5-38.5-79.5-83.2 0-46.1 37.5-83.6 83.6-83.6s83.6 37.5 83.6 83.6c0 44.7-35.3 81-79.5 83.2z" p-id="1785" fill="#666666"></path></svg>