<?xml version="1.0" standalone="no"?><!DOCTYPE svg PUBLIC "-//W3C//DTD SVG 1.1//EN" "http://www.w3.org/Graphics/SVG/1.1/DTD/svg11.dtd"><svg t="1599844086931" class="icon" viewBox="0 0 1216 1024" version="1.1" xmlns="http://www.w3.org/2000/svg" p-id="56719" xmlns:xlink="http://www.w3.org/1999/xlink" width="95" height="80"><defs><style type="text/css"></style></defs><path d="M1165.63296 870.272h-50.24a178.592 178.592 0 0 0-354.464 0h-254.912a178.592 178.592 0 0 0-354.464 0H50.49696A50.912 50.912 0 0 1 0.00096 819.072V51.232a51.008 51.008 0 0 1 50.496-51.2h710.72a50.944 50.944 0 0 1 50.496 51.2v153.6h176.928c37.12 0 52.768 23.072 75.808 51.2l112.96 203.84a219.904 219.904 0 0 1 38.624 103.456v256a51.2 51.2 0 0 1-14.752 36.096 49.856 49.856 0 0 1-35.616 14.88z m-53.728-350.624l-106.432-200.352s-11.296-12.16-19.424-12.16h-123.68v256h269.184a96.352 96.352 0 0 0-19.616-43.488z m-783.232 248.32a128 128 0 1 1-126.432 128 127.264 127.264 0 0 1 126.464-128.032z m609.44 0a128 128 0 1 1-126.432 128 127.264 127.264 0 0 1 126.336-128.032z" fill="#fe0058" p-id="56720"></path></svg>