<?xml version="1.0" standalone="no"?><!DOCTYPE svg PUBLIC "-//W3C//DTD SVG 1.1//EN" "http://www.w3.org/Graphics/SVG/1.1/DTD/svg11.dtd"><svg t="1599501868619" class="icon" viewBox="0 0 1024 1024" version="1.1" xmlns="http://www.w3.org/2000/svg" p-id="38716" xmlns:xlink="http://www.w3.org/1999/xlink" width="80" height="80"><defs><style type="text/css"></style></defs><path d="M224.871065 695.934185C125.064842 695.934185 43.855782 613.337924 43.855782 511.81215s81.201834-184.122035 181.015283-184.122035 181.015283 82.59626 181.015282 184.122035-81.209059 184.122035-181.015282 184.122035z m0-324.894038c-75.905906 0-137.665251 63.153771-137.665251 140.772003s61.75212 140.772003 137.665251 140.772003 137.665251-63.146546 137.665251-140.772003-61.759345-140.772003-137.665251-140.772003zM671.015141 306.058449c-82.242235 0-149.145784-68.023425-149.145784-151.631186 0-83.614986 66.903549-151.638411 149.145784-151.638411s149.145784 68.023425 149.145785 151.638411c-0.007225 83.607761-66.903549 151.631186-149.145785 151.631186z m0-259.92679c-58.334693 0-105.795752 48.580936-105.795752 108.288379S612.680449 262.708417 671.015141 262.708417s105.795752-48.573711 105.795753-108.281154-47.46106-108.295604-105.795753-108.295604zM766.616411 1020.835448c-99.806223 0-181.015283-82.603486-181.015282-184.122035s81.201834-184.122035 181.015282-184.122035 181.008058 82.603486 181.008058 184.122035-81.194609 184.122035-181.008058 184.122035z m0-324.901263c-75.905906 0-137.665251 63.146546-137.66525 140.772003s61.759345 140.772003 137.66525 140.772003 137.658026-63.146546 137.658026-140.772003-61.75212-140.772003-137.658026-140.772003z" p-id="38717" fill="#666666"></path><path d="M607.261695 793.406731a21.523291 21.523291 0 0 1-11.625034-3.395752L340.6879 627.56396a21.675016 21.675016 0 0 1 23.300642-36.565752l254.941536 162.447019a21.689466 21.689466 0 0 1-11.668383 39.961504zM352.349058 403.523771a21.675016 21.675016 0 0 1-14.04541-38.198603L529.513413 202.878149a21.675016 21.675016 0 0 1 28.069145 33.039949L366.372793 398.365117a21.588316 21.588316 0 0 1-14.023735 5.158654z" p-id="38718" fill="#666666"></path></svg>