<?xml version="1.0" standalone="no"?><!DOCTYPE svg PUBLIC "-//W3C//DTD SVG 1.1//EN" "http://www.w3.org/Graphics/SVG/1.1/DTD/svg11.dtd"><svg t="1599501752489" class="icon" viewBox="0 0 1024 1024" version="1.1" xmlns="http://www.w3.org/2000/svg" p-id="35502" xmlns:xlink="http://www.w3.org/1999/xlink" width="80" height="80"><defs><style type="text/css"></style></defs><path d="M1007.4 225.7c-4.6-5.9-11.7-9.7-19.2-9.7L201.2 216 167.8 40.5C165.6 29 155.5 21 143.7 21L34 21C20.5 21 9.6 32 9.6 45.5S20.5 70 34 70l89.5 0L155 245.4c0 0.1 0 0.2 0 0.4l98.8 513.6C256 770.9 267 779 278.7 779l587.2 0c13.5 0 24.5-11 24.5-24.5s-11-24.5-24.5-24.5L298.9 730l-15.1-77.2 612.3 3.2c0 0 0 0 0 0 11.3 0 21.2-9.5 23.8-20.5l92-389C1013.7 239.1 1012 231.5 1007.4 225.7zM876.8 603.7l-602.3-1.2-44.6-233.9L210.5 266l746.8 0L876.8 603.7z" fill="#666666" p-id="35503"></path><path d="M353.1 829.4c-47.2 0-85.6 38.4-85.6 85.6s38.4 85.6 85.6 85.6c47.2 0 85.6-38.4 85.6-85.6S400.3 829.4 353.1 829.4zM353.1 951.8c-20.2 0-36.7-16.5-36.7-36.7 0-20.2 16.5-36.7 36.7-36.7 20.2 0 36.7 16.5 36.7 36.7C389.8 935.3 373.3 951.8 353.1 951.8z" fill="#666666" p-id="35504"></path><path d="M769 829.4c-47.2 0-85.6 38.4-85.6 85.6s38.4 85.6 85.6 85.6c47.2 0 85.6-38.4 85.6-85.6S816.3 829.4 769 829.4zM769 951.8c-20.2 0-36.7-16.5-36.7-36.7 0-20.2 16.5-36.7 36.7-36.7 20.2 0 36.7 16.5 36.7 36.7C805.7 935.3 789.3 951.8 769 951.8z" fill="#666666" p-id="35505"></path></svg>