<?xml version="1.0" standalone="no"?><!DOCTYPE svg PUBLIC "-//W3C//DTD SVG 1.1//EN" "http://www.w3.org/Graphics/SVG/1.1/DTD/svg11.dtd"><svg t="1599844185921" class="icon" viewBox="0 0 1024 1024" version="1.1" xmlns="http://www.w3.org/2000/svg" p-id="58365" xmlns:xlink="http://www.w3.org/1999/xlink" width="80" height="80"><defs><style type="text/css"></style></defs><path d="M159.890286 356.717714h7.826285l812.105143 0.073143a48.054857 48.054857 0 0 1 38.765715 20.48c6.363429 9.069714 6.582857 16.091429 3.291428 32.256l-106.057143 507.026286-0.146285 0.804571a46.299429 46.299429 0 0 1-43.739429 33.499429H52.297143a44.763429 44.763429 0 0 1-34.157714-14.921143 45.787429 45.787429 0 0 1-10.166858-38.034286l0.073143-1.316571c1.170286-4.900571 7.021714-32.987429 13.019429-61.586286l29.915428-143.506286c28.525714-136.777143 50.322286-242.102857 61.44-296.521142 6.509714-32.109714 22.674286-39.131429 55.296-38.180572zM407.771429 73.142857c24.649143 0.219429 44.617143 19.821714 44.397714 43.885714v72.850286a24.356571 24.356571 0 0 0 7.168 17.554286 25.965714 25.965714 0 0 0 17.993143 7.606857h436.736c24.722286 0.292571 44.617143 19.894857 44.470857 43.885714v43.885715H125.586286c-31.451429 0-56.758857 20.553143-59.977143 49.005714l-0.146286 1.316571L17.554286 586.605714 0 664.868571V117.028571A44.251429 44.251429 0 0 1 44.470857 73.142857z" p-id="58366" fill="#fe0058"></path></svg>