<?xml version="1.0" standalone="no"?><!DOCTYPE svg PUBLIC "-//W3C//DTD SVG 1.1//EN" "http://www.w3.org/Graphics/SVG/1.1/DTD/svg11.dtd"><svg t="1603356632414" class="icon" viewBox="0 0 1024 1024" version="1.1" xmlns="http://www.w3.org/2000/svg" p-id="7522" xmlns:xlink="http://www.w3.org/1999/xlink" width="128" height="128"><defs><style type="text/css"></style></defs><path d="M512 512m-512 0a512 512 0 1 0 1024 0 512 512 0 1 0-1024 0Z" p-id="7523" fill="#1afa29" data-spm-anchor-id="a313x.7781069.0.i5" class=""></path><path d="M875.980244 397.697728c-6.29393-22.478323-13.93656-37.594995-27.142575-44.956646-11.857315-6.96828-25.793876-2.079245-40.404786 10.45242l-22.478323 25.73768a302.614422 302.614422 0 0 1-64.06322 57.76929A172.127758 172.127758 0 0 1 629.393041 471.482823H396.967183a149.424652 149.424652 0 0 1-92.610691-32.03161c-13.206015-10.396224-34.110855-33.38031-64.007024-66.142465C218.039732 348.414005 196.685325 341.333333 177.691143 351.729558c-13.262211 6.96828-21.57919 22.478323-27.142575 45.29382a276.146197 276.146197 0 0 0-4.889036 55.690045v53.6108h-1.404895v101.658216c0 22.478323 4.889035 38.943694 13.93656 50.576226a52.655471 52.655471 0 0 0 37.594996 18.09505h632.820985a49.901877 49.901877 0 0 0 37.594995-18.09505c9.77807-11.857315 13.262211-28.54747 13.262211-50.576226V452.713423a234.617495 234.617495 0 0 0-3.48414-55.015695z m-605.004061 221.411481a55.802437 55.802437 0 0 0 12.531665 22.478323A70.63813 70.63813 0 0 1 232.650642 618.15388a73.953682 73.953682 0 0 1-25.06333-57.038744A77.662606 77.662606 0 0 1 232.650642 503.514433a77.831193 77.831193 0 0 1 52.262101-23.658435c-4.889035 2.80979-9.77807 10.45242-13.93656 23.658435A198.595983 198.595983 0 0 0 264.120294 561.339919a198.427395 198.427395 0 0 0 6.855889 57.76929z m76.594885-0.955329a77.156843 77.156843 0 0 1-51.531555 23.714631 57.544507 57.544507 0 0 0 12.531665-22.478323A198.146416 198.146416 0 0 0 315.539458 561.958073a197.921633 197.921633 0 0 0-6.96828-57.76929c-4.889035-12.531665-9.047525-20.230491-13.936561-23.714631A81.09055 81.09055 0 0 1 371.229503 561.958073a77.325431 77.325431 0 0 1-23.658435 56.195807z m140.489518-74.459445l9.778071-2.079245h29.896169l9.77807 2.079245c2.079245 2.079245 1.404895 4.889035-1.404895 6.96828l-18.09505 25.73768a5.619581 5.619581 0 0 1-4.889035 2.079245l-4.832839-2.079245L489.577873 550.718911a6.96828 6.96828 0 0 1-1.404895-6.799692z m111.38009 105.142356c-6.237735 8.316979-18.7694 13.206015-37.538799 13.206014-20.230491 0-35.51575-8.373175-42.48403-23.658434l-1.404896-1.404896-4.889035-2.079245h-1.404895l-4.832839 2.079245-1.404896 1.404896c-6.96828 15.28526-22.478323 23.658435-42.48403 23.658434-18.7694 0-32.03161-4.889035-37.594995-13.206014v-9.778071a47.148282 47.148282 0 0 0 30.626715 10.45242c18.825595 2.079245 32.03161-3.48414 40.404785-18.09505a74.909011 74.909011 0 0 0 6.96828-33.717484h18.09505l1.404896 13.206015c1.348699 9.77807 2.079245 16.858742 6.237734 20.23049 8.373175 13.93656 21.57919 20.174295 40.404786 18.09505a56.813961 56.813961 0 0 0 30.626715-10.45242z m119.078916-29.952366c3.48414 11.239161 6.96828 18.7694 11.239161 22.478323a74.51564 74.51564 0 0 1-50.576226-22.984085 72.548787 72.548787 0 0 1-23.658435-57.038744 76.089123 76.089123 0 0 1 23.658435-57.825486 80.921962 80.921962 0 0 1 52.205905-23.658435c-4.889035 2.80979-9.047525 11.239161-12.531665 23.658435a159.09033 159.09033 0 0 0-8.373176 57.825486 158.977939 158.977939 0 0 0 8.148392 57.76929z m75.18999-0.730545a72.717375 72.717375 0 0 1-50.576227 23.714631c4.832839-3.48414 8.316979-11.239161 11.80112-22.478323 6.29393-15.28526 8.373175-35.51575 8.373175-57.76929s-2.079245-42.48403-8.373175-57.76929c-3.48414-12.531665-7.64263-20.90484-13.93656-23.714631a76.201515 76.201515 0 0 1 52.93645 23.714631 77.213039 77.213039 0 0 1 23.546043 58.106465 72.267808 72.267808 0 0 1-23.658435 56.195807z" fill="#DD2727" p-id="7524" data-spm-anchor-id="a313x.7781069.0.i8" class="selected"></path></svg>