<?xml version="1.0" standalone="no"?><!DOCTYPE svg PUBLIC "-//W3C//DTD SVG 1.1//EN" "http://www.w3.org/Graphics/SVG/1.1/DTD/svg11.dtd"><svg t="1599749624090" class="icon" viewBox="0 0 1024 1024" version="1.1" xmlns="http://www.w3.org/2000/svg" p-id="46284" xmlns:xlink="http://www.w3.org/1999/xlink" width="80" height="80"><defs><style type="text/css"></style></defs><path d="M451.347385 608.02498L300.565183 457.342701c-10.691647-11.091335-26.579235-15.4879-41.467603-11.590945-14.888368 3.896956-26.579235 15.587822-30.47619 30.476191-3.896956 14.888368 0.49961 30.775956 11.590944 41.467603l180.858704 180.858704c7.993755 7.993755 18.785324 12.590164 30.176425 12.590164 11.291179 0 22.18267-4.496487 30.176425-12.590164l301.46448-301.46448c11.091335-10.691647 15.4879-26.579235 11.590945-41.467604-3.896956-14.888368-15.587822-26.579235-30.47619-30.47619-14.888368-3.896956-30.775956 0.49961-41.467604 11.590944L451.347385 608.02498z m60.252927 415.97502c-282.579235 0-511.600312-229.021077-511.600312-511.600312S229.120999 0.799375 511.600312 0.799375c282.579235 0 511.600312 229.021077 511.600313 511.600313s-229.021077 511.600312-511.600313 511.600312z m0 0" p-id="46285" fill="#fe0036"></path></svg>