<?xml version="1.0" standalone="no"?><!DOCTYPE svg PUBLIC "-//W3C//DTD SVG 1.1//EN" "http://www.w3.org/Graphics/SVG/1.1/DTD/svg11.dtd"><svg t="1604320938993" class="icon" viewBox="0 0 1024 1024" version="1.1" xmlns="http://www.w3.org/2000/svg" p-id="10226" xmlns:xlink="http://www.w3.org/1999/xlink" width="64" height="64"><defs><style type="text/css"></style></defs><path d="M512 1024C229.2 1024 0 794.8 0 512S229.2 0 512 0s512 229.2 512 512-229.2 512-512 512z m0-844.8c-141.4 0-256 116.4-256 260s256 405.6 256 405.6 256-262 256-405.6c0-143.6-114.6-260-256-260z m-153.6 260c0-86.1 68.8-156 153.6-156s153.6 69.9 153.6 156-68.8 156-153.6 156-153.6-69.9-153.6-156z" fill="#DD2727" p-id="10227"></path></svg>