<?xml version="1.0" standalone="no"?><!DOCTYPE svg PUBLIC "-//W3C//DTD SVG 1.1//EN" "http://www.w3.org/Graphics/SVG/1.1/DTD/svg11.dtd"><svg t="1604340137484" class="icon" viewBox="0 0 1024 1024" version="1.1" xmlns="http://www.w3.org/2000/svg" p-id="6498" xmlns:xlink="http://www.w3.org/1999/xlink" width="64" height="64"><defs><style type="text/css"></style></defs><path d="M512 512m-451.764706 0a451.764706 451.764706 0 1 0 903.529412 0 451.764706 451.764706 0 1 0-903.529412 0Z" fill="#d4237a" p-id="6499" data-spm-anchor-id="a313x.7781069.0.i5" class=""></path><path d="M724.841412 582.686118v76.378353c0 34.213647-27.919059 62.072471-62.192941 62.07247H356.352a62.223059 62.223059 0 0 1-62.192941-62.042353v-267.414588c0-34.213647 27.919059-62.042353 62.192941-62.042353h76.589176c13.221647 0 23.913412 10.661647 23.913412 23.823059a23.913412 23.913412 0 0 1-23.913412 23.883294H356.352a14.366118 14.366118 0 0 0-14.366118 14.305882v267.444706c0 7.890824 6.445176 14.275765 14.366118 14.275765h306.296471a14.366118 14.366118 0 0 0 14.366117-14.305882v-76.378353a23.913412 23.913412 0 0 1 47.826824 0z" fill="#ffffff" p-id="6500" data-spm-anchor-id="a313x.7781069.0.i3" class="selected"></path><path d="M449.054118 525.191529l-5.963294 5.993412-14.998589 65.92753 62.945883-14.968471 5.993411-9.005176 227.71953-224.737883-50.928941-47.947294z" fill="#ffffff" p-id="6501" data-spm-anchor-id="a313x.7781069.0.i4" class="selected"></path></svg>