<?xml version="1.0" standalone="no"?><!DOCTYPE svg PUBLIC "-//W3C//DTD SVG 1.1//EN" "http://www.w3.org/Graphics/SVG/1.1/DTD/svg11.dtd"><svg t="1604219389945" class="icon" viewBox="0 0 1024 1024" version="1.1" xmlns="http://www.w3.org/2000/svg" p-id="7825" xmlns:xlink="http://www.w3.org/1999/xlink" width="128" height="128"><defs><style type="text/css"></style></defs><path d="M512 1024C230.4 1024 0 793.6 0 512S230.4 0 512 0 1024 230.4 1024 512 793.6 1024 512 1024z" fill="#FF6600" p-id="7826" data-spm-anchor-id="a313x.7781069.0.i16" class="selected"></path><path d="M1024 512a509.479385 509.479385 0 0 0-9.499569-97.547815l-200.0896-41.117539-480.964923-44.378584s-21.519754-14.020923-9.263262 53.6576c12.146215 67.048369 32.894031 262.033723 32.894031 262.033723l30.830277 5.923446 248.138831 358.053415C858.206523 952.792615 1024 750.859815 1024 512z" fill="#FFA08F" p-id="7827"></path><path d="M754.026338 619.441231l-398.9504 21.960861-36.596184-311.0912 486.793846 46.347816z" fill="#FFFFFF" p-id="7828"></path><path d="M344.095508 735.105969a6.616615 6.616615 0 0 1-6.585108-6.159754c-0.094523-1.276062-0.047262-16.336738-0.015754-25.1904 0.157538-40.692185 56.603569-68.781292 58.998154-69.947077a6.600862 6.600862 0 0 1 5.813169 11.846893c-0.519877 0.252062-51.483569 25.631508-51.6096 58.147446-0.031508 8.774892-0.047262 14.414769-0.031507 18.053908l382.755446-3.056247c3.528862-0.378092 6.616615 2.914462 6.648123 6.5536a6.616615 6.616615 0 0 1-6.5536 6.648124l-389.372062 3.103507h-0.047261z m-25.584246-398.194215h-0.267816a6.600862 6.600862 0 0 1-6.333046-6.868677c1.071262-26.608246-4.222031-46.174523-15.753846-58.178954-11.027692-11.500308-24.323938-11.815385-24.449969-11.815385a6.616615 6.616615 0 0 1 0-13.201723c0.787692 0 18.904615 0.173292 33.981046 15.879877 14.115446 14.682585 20.637538 37.525662 19.408738 67.851816a6.616615 6.616615 0 0 1-6.585107 6.333046z m125.636923 5.482338h-0.28357a6.600862 6.600862 0 0 1-6.317292-6.852923c1.323323-33.240615-5.277538-57.737846-19.613538-72.830031-13.879138-14.635323-30.137108-14.981908-30.814523-14.997661l-110.655016-9.042708a6.600862 6.600862 0 0 1-6.033723-7.120738 6.600862 6.600862 0 0 1 7.104985-6.033723l110.166646 9.0112c0.157538-0.047262 21.630031 0.141785 39.542154 18.794338 17.077169 17.786092 24.9856 45.607385 23.488984 82.723446a6.616615 6.616615 0 0 1-6.585107 6.3488z" fill="#FFFFFF" p-id="7829"></path><path d="M271.627815 218.064738h-42.535384a15.596308 15.596308 0 0 0-15.533293 15.549047v10.36603a15.596308 15.596308 0 0 0 15.549047 15.549047h42.51963v-41.464124z" fill="#FF6600" p-id="7830"></path><path d="M434.412308 636.030031a4.615877 4.615877 0 0 1-4.568616-4.080246l-27.884307-234.149416a4.600123 4.600123 0 0 1 4.048738-5.135754 4.600123 4.600123 0 0 1 5.135754 4.048739l27.868554 234.149415a4.584369 4.584369 0 0 1-4.600123 5.167262zM530.558031 622.970092l-39.589416-233.928861a4.600123 4.600123 0 0 1 4.032985-5.12 4.568615 4.568615 0 0 1 5.135754 4.032984l39.589415 233.928862a4.600123 4.600123 0 0 1-4.600123 5.167261 4.615877 4.615877 0 0 1-4.568615-4.080246zM618.874092 622.465969L578.733292 383.291077a4.600123 4.600123 0 0 1 4.048739-5.12c2.4576-0.4096 4.836431 1.480862 5.12 4.032985l40.1408 239.190646a4.584369 4.584369 0 0 1-4.032985 5.135754l-0.551384 0.031507a4.615877 4.615877 0 0 1-4.568616-4.080246zM709.8368 615.282215l-39.652431-219.498338a4.631631 4.631631 0 0 1 4.001477-5.167262 4.678892 4.678892 0 0 1 5.167262 4.017231l39.65243 219.482585a4.631631 4.631631 0 0 1-9.168738 1.165784zM709.899815 445.046154a4.615877 4.615877 0 0 1-0.189046-9.247508l34.343385-1.480861c2.882954-0.362338 4.726154 1.858954 4.820677 4.411077a4.615877 4.615877 0 0 1-4.411077 4.820676l-34.374892 1.480862h-0.189047z" fill="#AEABAA" p-id="7831"></path><path d="M415.996062 819.2a32.043323 32.043323 0 0 1-31.996062-31.980308c0-17.660062 14.351754-32.011815 31.996062-32.011815s32.011815 14.351754 32.011815 32.011815A32.059077 32.059077 0 0 1 415.980308 819.2m0-35.383138a3.308308 3.308308 0 0 0-2.394585 1.024 3.560369 3.560369 0 0 0-0.992492 2.489107c0 3.859692 6.805662 3.859692 6.805661 0a3.465846 3.465846 0 0 0-3.418584-3.513107M671.996062 819.2a32.043323 32.043323 0 0 1-31.996062-31.980308c0-17.660062 14.351754-32.011815 31.996062-32.011815s32.011815 14.351754 32.011815 32.011815A32.059077 32.059077 0 0 1 671.996062 819.2m0-35.383138a3.308308 3.308308 0 0 0-2.394585 1.024 3.560369 3.560369 0 0 0-0.992492 2.489107c0 3.859692 6.805662 3.859692 6.805661 0a3.465846 3.465846 0 0 0-3.418584-3.513107" fill="#FFFFFF" p-id="7832"></path><path d="M719.383631 545.146092a4.615877 4.615877 0 0 1-0.2048-9.247507l34.359138-1.465108a4.521354 4.521354 0 0 1 4.820677 4.411077 4.615877 4.615877 0 0 1-4.411077 4.820677l-34.374892 1.480861h-0.189046z m-84.283077 3.922708a4.615877 4.615877 0 0 1-0.252062-9.231754l48.7424-2.615138c2.583631-0.267815 4.726154 1.827446 4.852185 4.363815a4.615877 4.615877 0 0 1-4.363815 4.867939l-48.7424 2.599384h-0.236308z m-90.505846 3.938462a4.615877 4.615877 0 0 1-0.236308-9.231754l50.774646-2.615139c2.804185-0.126031 4.726154 1.827446 4.852185 4.379569a4.615877 4.615877 0 0 1-4.379569 4.836431l-50.774647 2.630893h-0.236307z m-95.531323 3.576123a4.631631 4.631631 0 0 1-0.2048-9.231754l55.941907-2.394585h0.2048a4.615877 4.615877 0 0 1 0.189046 9.231754l-55.926153 2.394585h-0.2048z m-93.042216 4.159015a4.631631 4.631631 0 0 1-0.2048-9.231754l62.621539-2.678154h0.189046a4.631631 4.631631 0 0 1 0.220554 9.216l-62.621539 2.709662h-0.2048z m387.702154-159.1296a5.671385 5.671385 0 0 1-0.378092-0.015754l-46.458093-3.702154a4.615877 4.615877 0 0 1-4.253538-4.962461 4.726154 4.726154 0 0 1 4.978215-4.253539l46.473847 3.702154a4.615877 4.615877 0 0 1-0.362339 9.231754z m-68.686769-8.160492h-0.378092l-48.962954-3.8912a4.615877 4.615877 0 1 1 0.724677-9.200246l48.978707 3.875446a4.615877 4.615877 0 1 1-0.362338 9.216z m-80.502154-6.396062a5.671385 5.671385 0 0 1-0.362338-0.015754L323.016862 365.489231a4.600123 4.600123 0 0 1-4.237785-4.962462 4.726154 4.726154 0 0 1 4.978215-4.253538l271.139446 21.551261a4.615877 4.615877 0 0 1-0.346584 9.231754z m120.028554 109.205662a4.615877 4.615877 0 0 1-0.2048-9.231754l34.343384-1.480862c2.930215-0.315077 4.726154 1.858954 4.820677 4.411077a4.615877 4.615877 0 0 1-4.411077 4.820677l-34.359138 1.480862h-0.189046z m-84.298831 3.922707a4.615877 4.615877 0 0 1-0.252061-9.231753l48.7424-2.615139c2.363077-0.267815 4.726154 1.811692 4.852184 4.379569a4.615877 4.615877 0 0 1-4.363815 4.852185l-48.7424 2.599385-0.236308 0.015753z m-90.490092 3.938462a4.615877 4.615877 0 0 1-0.252062-9.247508l50.7904-2.599384c2.914462-0.378092 4.726154 1.827446 4.852185 4.379569a4.615877 4.615877 0 0 1-4.379569 4.836431L539.994585 504.123077h-0.220554z m-95.547077 3.576123a4.631631 4.631631 0 0 1-0.189046-9.247508l55.926154-2.394584c2.756923-0.315077 4.7104 1.874708 4.820676 4.411077a4.647385 4.647385 0 0 1-4.411076 4.83643l-55.941908 2.394585h-0.2048z m-93.042216 4.159015a4.631631 4.631631 0 0 1-0.189046-9.231753l62.605785-2.678154c2.788431-0.252062 4.694646 1.874708 4.820677 4.411077a4.600123 4.600123 0 0 1-4.411077 4.820677l-62.621539 2.678153h-0.2048z" fill="#AEABAA" p-id="7833"></path></svg>