<?xml version="1.0" standalone="no"?><!DOCTYPE svg PUBLIC "-//W3C//DTD SVG 1.1//EN" "http://www.w3.org/Graphics/SVG/1.1/DTD/svg11.dtd"><svg t="1605167815324" class="icon" viewBox="0 0 1024 1024" version="1.1" xmlns="http://www.w3.org/2000/svg" p-id="10111" xmlns:xlink="http://www.w3.org/1999/xlink" width="64" height="64"><defs><style type="text/css"></style></defs><path d="M998.4 0a25.6 25.6 0 0 1 25.6 25.6v972.8a25.6 25.6 0 0 1-25.6 25.6H25.6a25.6 25.6 0 0 1-25.6-25.6V25.6a25.6 25.6 0 0 1 25.6-25.6h972.8z m0 12.8H25.6a12.8 12.8 0 0 0-12.7104 11.3024L12.8 25.6v972.8a12.8 12.8 0 0 0 11.3024 12.7104L25.6 1011.2h972.8a12.8 12.8 0 0 0 12.7104-11.3024L1011.2 998.4V25.6a12.8 12.8 0 0 0-11.3024-12.7104L998.4 12.8z" p-id="10112" fill="#2c2c2c"></path><path d="M308.9408 805.888v-14.336H215.552v-87.6544h75.9808v-14.336H215.552v-63.2832h-15.1552V791.552h-73.728v14.336h182.272z m60.0064 8.6016V677.4784a245.504 245.504 0 0 0 20.0704-44.8512l-13.9264-6.5536a229.6704 229.6704 0 0 1-47.7184 83.968l4.7104 15.7696c7.9872-8.192 15.36-16.9984 22.1184-26.0096v114.688h14.7456z m114.4832 1.2288l8.3968-12.6976a344.2432 344.2432 0 0 0-27.8528-16.5888c18.8416-14.336 32.5632-28.672 41.1648-43.008v-12.6976h-84.1728c3.2768-7.9872 6.7584-16.5888 10.0352-26.0096h85.6064v-14.1312h-80.896c2.4576-7.5776 4.7104-15.5648 6.9632-23.7568h65.536v-14.336h-61.8496c1.8432-7.9872 3.6864-16.384 5.7344-24.9856l-14.336-1.4336-6.144 26.4192H391.68v14.336h36.4544c-2.048 7.7824-4.3008 15.7696-6.7584 23.7568h-38.7072v14.1312h34.2016a641.9712 641.9712 0 0 1-15.1552 39.7312h87.6544c-9.4208 12.288-22.1184 23.9616-38.2976 35.2256a499.5712 499.5712 0 0 0-36.864-15.9744l-7.7824 11.4688c26.2144 9.8304 52.0192 23.3472 77.0048 40.5504z m74.5472-1.6384v-8.3968h138.4448v8.3968h14.336V635.2896H543.6416V814.08h14.336z m138.4448-21.504H557.9776V648.3968h138.4448V792.576z m-123.6992-60.2112c23.3472-5.12 42.8032-11.8784 58.5728-20.2752 14.336 7.9872 31.3344 14.5408 51.2 19.8656l7.7824-11.0592a228.6336 228.6336 0 0 1-46.8992-16.1792c11.6736-8.192 20.2752-17.8176 26.0096-28.672v-10.24h-54.0672c2.048-3.6864 3.6864-7.3728 5.3248-11.264l-13.1072-1.6384c-6.5536 15.5648-19.2512 28.8768-37.888 39.936l8.192 10.6496a140.288 140.288 0 0 0 20.8896-15.9744c5.7344 6.144 12.6976 11.8784 20.6848 17.2032-14.336 6.7584-32.1536 12.0832-53.248 15.7696l6.5536 11.8784z m58.5728-33.9968a140.7744 140.7744 0 0 1-24.9856-19.0464 9.6256 9.6256 0 0 1 1.8432-2.4576h46.4896c-5.5296 8.192-13.312 15.36-23.3472 21.504z m17.8176 56.32l6.9632-10.6496a261.952 261.952 0 0 0-44.032-19.2512l-6.7584 9.8304a205.696 205.696 0 0 1 43.8272 20.0704z m15.1552 32.5632l4.9152-11.8784c-24.9856-9.4208-51.2-16.7936-78.4384-21.9136l-5.7344 11.0592a463.7952 463.7952 0 0 1 79.2576 22.7328z m223.0272 27.2384v-85.8112h-95.232c0.4096-6.7584 0.8192-13.9264 1.024-21.504v-12.288h120.6272v-14.1312h-46.08v-54.4768h-14.5408v54.4768H793.088v-48.7424h-14.9504v75.1616c-0.4096 44.2368-11.264 76.5952-32.768 96.8704l11.264 9.8304c17.408-16.384 28.672-40.1408 33.5872-70.8608h82.3296v71.4752h14.7456zM640 367.296h-111.3088V256h-33.3824v111.296H384v33.408h111.3088V512h33.3824v-111.296H640z" p-id="10113" fill="#2c2c2c"></path></svg>